<svg xmlns="http://www.w3.org/2000/svg" xmlns:xlink="http://www.w3.org/1999/xlink" viewBox="0 0 347.34 374.98"><defs><style>.cls-1{fill:url(#Dégradé_sans_nom_13);}.cls-2{fill:url(#Dégradé_sans_nom_13-2);}.cls-3{fill:url(#Dégradé_sans_nom_13-3);}.cls-4{fill:url(#Dégradé_sans_nom_13-4);}.cls-5{fill:url(#Dégradé_sans_nom_13-5);}.cls-6{fill:url(#Dégradé_sans_nom_13-6);}.cls-7{fill:url(#Dégradé_sans_nom_13-7);}.cls-8{fill:url(#Dégradé_sans_nom_13-8);}.cls-9{fill:url(#Dégradé_sans_nom_13-9);}.cls-10{fill:url(#Dégradé_sans_nom_13-10);}.cls-11{fill:url(#Dégradé_sans_nom_13-11);}.cls-12{fill:url(#Dégradé_sans_nom_13-12);}.cls-13{fill:url(#Dégradé_sans_nom_13-13);}.cls-14{fill:url(#Dégradé_sans_nom_13-14);}.cls-15{fill:url(#Dégradé_sans_nom_13-15);}.cls-16{fill:url(#Dégradé_sans_nom_13-16);}.cls-17{fill:url(#Dégradé_sans_nom_13-17);}.cls-18{fill:url(#Dégradé_sans_nom_13-18);}.cls-19{fill:url(#Dégradé_sans_nom_13-19);}.cls-20{fill:url(#Dégradé_sans_nom_13-20);}.cls-21{fill:url(#Dégradé_sans_nom_13-21);}.cls-22{fill:url(#Dégradé_sans_nom_13-22);}.cls-23{fill:url(#Dégradé_sans_nom_13-23);}.cls-24{fill:url(#Dégradé_sans_nom_13-24);}.cls-25{fill:url(#Dégradé_sans_nom_13-25);}.cls-26{fill:url(#Dégradé_sans_nom_13-26);}.cls-27{fill:url(#Dégradé_sans_nom_13-27);}.cls-28{fill:url(#Dégradé_sans_nom_13-28);}.cls-29{fill:url(#Dégradé_sans_nom_13-29);}.cls-30{fill:url(#Dégradé_sans_nom_13-30);}.cls-31{fill:url(#Dégradé_sans_nom_13-31);}</style><linearGradient id="Dégradé_sans_nom_13" x1="-4.26" y1="-34.96" x2="380.24" y2="235.39" gradientUnits="userSpaceOnUse"><stop offset="0" stop-color="#f9b233"/><stop offset="1" stop-color="#f39200"/></linearGradient><linearGradient id="Dégradé_sans_nom_13-2" x1="-20.49" y1="-11.87" x2="364" y2="258.48" xlink:href="#Dégradé_sans_nom_13"/><linearGradient id="Dégradé_sans_nom_13-3" x1="-13.9" y1="-21.24" x2="370.59" y2="249.11" xlink:href="#Dégradé_sans_nom_13"/><linearGradient id="Dégradé_sans_nom_13-4" x1="-46.64" y1="25.32" x2="337.85" y2="295.67" xlink:href="#Dégradé_sans_nom_13"/><linearGradient id="Dégradé_sans_nom_13-5" x1="-46.47" y1="25.08" x2="338.02" y2="295.43" xlink:href="#Dégradé_sans_nom_13"/><linearGradient id="Dégradé_sans_nom_13-6" x1="-56.29" y1="39.05" x2="328.2" y2="309.4" xlink:href="#Dégradé_sans_nom_13"/><linearGradient id="Dégradé_sans_nom_13-7" x1="-51.95" y1="32.87" x2="332.55" y2="303.22" xlink:href="#Dégradé_sans_nom_13"/><linearGradient id="Dégradé_sans_nom_13-8" x1="-17.01" y1="-16.83" x2="367.49" y2="253.52" xlink:href="#Dégradé_sans_nom_13"/><linearGradient id="Dégradé_sans_nom_13-9" x1="-33.21" y1="6.22" x2="351.28" y2="276.57" xlink:href="#Dégradé_sans_nom_13"/><linearGradient id="Dégradé_sans_nom_13-10" x1="-34.86" y1="8.57" x2="349.63" y2="278.91" xlink:href="#Dégradé_sans_nom_13"/><linearGradient id="Dégradé_sans_nom_13-11" x1="-37.76" y1="12.69" x2="346.74" y2="283.04" xlink:href="#Dégradé_sans_nom_13"/><linearGradient id="Dégradé_sans_nom_13-12" x1="-23.27" y1="-7.91" x2="361.22" y2="262.44" xlink:href="#Dégradé_sans_nom_13"/><linearGradient id="Dégradé_sans_nom_13-13" x1="-123.63" y1="134.82" x2="260.86" y2="405.17" xlink:href="#Dégradé_sans_nom_13"/><linearGradient id="Dégradé_sans_nom_13-14" x1="-112.16" y1="118.5" x2="272.34" y2="388.85" xlink:href="#Dégradé_sans_nom_13"/><linearGradient id="Dégradé_sans_nom_13-15" x1="-95.54" y1="94.86" x2="288.96" y2="365.21" xlink:href="#Dégradé_sans_nom_13"/><linearGradient id="Dégradé_sans_nom_13-16" x1="-80.05" y1="72.83" x2="304.45" y2="343.18" xlink:href="#Dégradé_sans_nom_13"/><linearGradient id="Dégradé_sans_nom_13-17" x1="-63.8" y1="49.72" x2="320.7" y2="320.07" xlink:href="#Dégradé_sans_nom_13"/><linearGradient id="Dégradé_sans_nom_13-18" x1="-53.55" y1="35.15" x2="330.94" y2="305.5" xlink:href="#Dégradé_sans_nom_13"/><linearGradient id="Dégradé_sans_nom_13-19" x1="-151.56" y1="174.53" x2="232.94" y2="444.88" xlink:href="#Dégradé_sans_nom_13"/><linearGradient id="Dégradé_sans_nom_13-20" x1="-150.2" y1="172.6" x2="234.3" y2="442.95" xlink:href="#Dégradé_sans_nom_13"/><linearGradient id="Dégradé_sans_nom_13-21" x1="-141.01" y1="159.54" x2="243.48" y2="429.88" xlink:href="#Dégradé_sans_nom_13"/><linearGradient id="Dégradé_sans_nom_13-22" x1="-135.21" y1="151.28" x2="249.29" y2="421.63" xlink:href="#Dégradé_sans_nom_13"/><linearGradient id="Dégradé_sans_nom_13-23" x1="-128.83" y1="142.21" x2="255.66" y2="412.56" xlink:href="#Dégradé_sans_nom_13"/><linearGradient id="Dégradé_sans_nom_13-24" x1="-121.44" y1="131.7" x2="263.06" y2="402.05" xlink:href="#Dégradé_sans_nom_13"/><linearGradient id="Dégradé_sans_nom_13-25" x1="-113.2" y1="119.99" x2="271.29" y2="390.33" xlink:href="#Dégradé_sans_nom_13"/><linearGradient id="Dégradé_sans_nom_13-26" x1="-109.81" y1="115.16" x2="274.68" y2="385.51" xlink:href="#Dégradé_sans_nom_13"/><linearGradient id="Dégradé_sans_nom_13-27" x1="-98.35" y1="98.86" x2="286.15" y2="369.21" xlink:href="#Dégradé_sans_nom_13"/><linearGradient id="Dégradé_sans_nom_13-28" x1="-92.43" y1="90.44" x2="292.07" y2="360.79" xlink:href="#Dégradé_sans_nom_13"/><linearGradient id="Dégradé_sans_nom_13-29" x1="-87.57" y1="83.53" x2="296.93" y2="353.88" xlink:href="#Dégradé_sans_nom_13"/><linearGradient id="Dégradé_sans_nom_13-30" x1="-80.3" y1="73.19" x2="304.2" y2="343.54" xlink:href="#Dégradé_sans_nom_13"/><linearGradient id="Dégradé_sans_nom_13-31" x1="-74.51" y1="64.96" x2="309.98" y2="335.31" xlink:href="#Dégradé_sans_nom_13"/></defs><title>Fichier 1</title><g id="Calque_2" data-name="Calque 2"><g id="Calque_1-2" data-name="Calque 1"><path class="cls-1" d="M248.44,183.37a60.69,60.69,0,0,1-24,4.9,59.7,59.7,0,0,1-31.14-8.46,64.19,64.19,0,0,1-22.67-22.67A59.76,59.76,0,0,1,162.14,126a60.64,60.64,0,0,1,8.46-31.3,63.89,63.89,0,0,1,22.67-22.85,59.88,59.88,0,0,1,31.14-8.46,60.7,60.7,0,0,1,24,4.91,66.88,66.88,0,0,1,20.3,13.37L310,40.38a121.54,121.54,0,0,0-38.92-26.23,121.36,121.36,0,0,0-107.28,6.94A120.18,120.18,0,0,0,125.09,57c-1.13-3.61-1.45-7.27,1.65-10.87-7.91,1.3-17.56,5.94-21.7,13.83a12.7,12.7,0,0,0,5.35,17.13,13,13,0,0,0,2.94,1.08q-1.29,3-2.41,6a11.16,11.16,0,0,0-6.77-4.46C96.42,78,91.67,90.75,82.48,86.43c3,6.44,9.24,13.58,17,15.23a11.1,11.1,0,0,0,6.65-.61,123.55,123.55,0,0,0-2.5,25c0,1.36,0,2.72.06,4.07-6.19,3.86-10.8,10.67-13.06,16.8,5.9-3.38,10.63,0,15.25,2.88a117.22,117.22,0,0,0,14,36.83,121,121,0,0,0,44,44,121.45,121.45,0,0,0,107.28,6.94A121.54,121.54,0,0,0,310,211.29L268.74,170A66.88,66.88,0,0,1,248.44,183.37Z"/><path class="cls-2" d="M51.89,44.57c-3.33-4,2.39-8,.57-11.64a5.77,5.77,0,1,0-10.32,5.16C44,41.72,48.3,43.91,51.89,44.57Z"/><path class="cls-3" d="M94.4,64.07a5.44,5.44,0,0,0,7.49-1.76c2-3.26-3-7.5.46-11-3.42.31-7.7,2-9.71,5.25A5.45,5.45,0,0,0,94.4,64.07Z"/><path class="cls-4" d="M95.47,114.22c-4-5.28-13.93.13-17.35-7.63-1.65,5.69-1.62,13.62,2.34,18.9a9.39,9.39,0,1,0,15-11.27Z"/><path class="cls-5" d="M30.85,74c-1.83,1.38-3.66,3.84-3.66,6.4a3.63,3.63,0,0,0,7.26,0C34.45,77.86,30.11,77.22,30.85,74Z"/><path class="cls-6" d="M73.52,120.36c-3.37,2.53-6.73,7-6.73,11.73a6.67,6.67,0,1,0,13.33,0C80.12,127.41,72.15,126.23,73.52,120.36Z"/><path class="cls-7" d="M62.17,96.8c-7.13-6.19-18.44-7-26.73-5.26,10.72,5.67,2,19.34,9.12,25.53A13.43,13.43,0,1,0,62.17,96.8Z"/><path class="cls-8" d="M22.46,19.8a7.18,7.18,0,0,0,7-7.36C29.32,7.4,20.71,6.35,22,0c-3.55,2.82-7,7.77-6.91,12.82A7.17,7.17,0,0,0,22.46,19.8Z"/><path class="cls-9" d="M35.18,33c-8-9.76-26.6,1.35-33.75-13.2-2.7,11-2,26.15,6,35.91A17.94,17.94,0,1,0,35.18,33Z"/><path class="cls-10" d="M44.11,58.11c-1.58,3.79-2.17,9.25.15,13.19a6.51,6.51,0,1,0,11.21-6.61C53.15,60.76,45.87,63.71,44.11,58.11Z"/><path class="cls-11" d="M69.9,82.2c-4.2.78-7.7,4.55-9.41,8,5-2.2,7.42,4.75,11.62,4a6.09,6.09,0,1,0-2.21-12Z"/><path class="cls-12" d="M83.73,74a14.39,14.39,0,0,0,4.78-19.78c-5.27-8.64-21.28-1.85-25.36-14.2-3.35,8.46-4.48,20.56.79,29.19A14.4,14.4,0,0,0,83.73,74Z"/><path class="cls-13" d="M113.55,310.55A14.6,14.6,0,0,0,118,307.6l9.1,9.11a26.77,26.77,0,0,1-8.58,5.78A26.77,26.77,0,0,1,94.9,321a26.62,26.62,0,0,1-9.7-9.7,26.77,26.77,0,0,1,0-26.75,26.5,26.5,0,0,1,9.7-9.74,26.77,26.77,0,0,1,23.65-1.53,26.77,26.77,0,0,1,8.58,5.78l-9.1,9.11a14.6,14.6,0,0,0-4.48-2.95,13.57,13.57,0,0,0-12.16.78,14.12,14.12,0,0,0-5,5,13.38,13.38,0,0,0-1.86,6.9,13.22,13.22,0,0,0,1.86,6.87,14.17,14.17,0,0,0,5,5,13.57,13.57,0,0,0,12.16.78Z"/><path class="cls-14" d="M159.07,271.86l17.24,52.23h-13l-3.44-10.67H143.55l-3.36,10.67H127.13l17.32-52.23Zm-12,30.67h9.4l-4.7-14.78Z"/><path class="cls-15" d="M220.86,324.09H207.35L199,304.17h-8.58v19.92H177.8V271.34H203a16.4,16.4,0,0,1,14.4,24.29,17,17,0,0,1-5.45,5.93Zm-13.43-38.58L206,284a5.06,5.06,0,0,0-3.51-1.72v-.07H190.11v11.19H202.5a5.32,5.32,0,0,0,3.51-1.83,5.63,5.63,0,0,0,1.42-3.84Z"/><path class="cls-16" d="M263.39,298.57s.57,1.09,1.72,3.25a15.34,15.34,0,0,1-.3,14.63A15.39,15.39,0,0,1,259.4,322a14.62,14.62,0,0,1-7.5,2.12H225.33V271.26h24.18a14.32,14.32,0,0,1,7.46,2.05,15.09,15.09,0,0,1,5.42,5.49,15.11,15.11,0,0,1-2,17.68ZM252.8,285.29l-1.61-1.6a5.24,5.24,0,0,0-3.84-1.61h-9.7v11.2h9.7a5.13,5.13,0,0,0,3.13-1,5.61,5.61,0,0,0,1.72-2,5.77,5.77,0,0,0,.6-2.62Zm-1,27.91,1.6-1.64a5.2,5.2,0,0,0,1.53-4,5.52,5.52,0,0,0-4.48-5.44,3.9,3.9,0,0,0-.89-.08H237.65v11.19h11.94Z"/><path class="cls-17" d="M307.19,312.68v11.41H271.3V271.34h35.22v11.41H284.81V292h18.28v11.41H284.81v9.26Z"/><path class="cls-18" d="M326.6,311.41h20.74v12.68H313.16V271.34H326.6Z"/><path class="cls-19" d="M90.62,330.43a.6.6,0,0,1,.58-.59H92a.6.6,0,0,1,.59.59v30.11a.52.52,0,0,1-.59.58h-.89a.52.52,0,0,1-.49-.58Z"/><path class="cls-20" d="M105.45,349.6a14.72,14.72,0,0,1,4.52.8c0-3.93-.4-5.9-3.93-5.9a13.08,13.08,0,0,0-5.37,1.21.47.47,0,0,1-.67-.36l-.22-.54c-.13-.4,0-.58.27-.67a12.9,12.9,0,0,1,6.12-1.34c5.45,0,5.68,3.27,5.68,7.82v9.92a.59.59,0,0,1-.59.58h-.53c-.32,0-.45-.17-.54-.49L110,359a9.3,9.3,0,0,1-6.21,2.55A5.63,5.63,0,0,1,98,355.63C98,352.19,100.76,349.6,105.45,349.6ZM104,359.83a8.13,8.13,0,0,0,6-2.77v-4.92a11.58,11.58,0,0,0-4.52-.94c-3.39,0-5.67,1.75-5.67,4.38A4,4,0,0,0,104,359.83Z"/><path class="cls-21" d="M127.13,358.93l.44-.71a.53.53,0,0,1,.81,0,8,8,0,0,0,4.78,1.74c2.55,0,4.29-1.43,4.29-3.18,0-2.05-2-2.9-5-4-3.18-1.11-5.5-2.5-5.5-5.27,0-2,1.74-4.65,5.85-4.65a9.43,9.43,0,0,1,5,1.43.63.63,0,0,1,.18.85l-.27.49a.6.6,0,0,1-.85.23,8.42,8.42,0,0,0-4.11-1.25c-2.81,0-3.84,1.65-3.84,2.86,0,1.78,1.61,2.63,4.25,3.57,3.35,1.25,6.3,2.37,6.3,5.63,0,2.68-2.77,5-6.35,5a9.08,9.08,0,0,1-5.85-2A.49.49,0,0,1,127.13,358.93Z"/><path class="cls-22" d="M150.77,349.6a14.7,14.7,0,0,1,4.51.8c0-3.93-.4-5.9-3.93-5.9a13,13,0,0,0-5.36,1.21.47.47,0,0,1-.67-.36l-.23-.54a.47.47,0,0,1,.27-.67,12.9,12.9,0,0,1,6.12-1.34c5.45,0,5.68,3.27,5.68,7.82v9.92a.59.59,0,0,1-.58.58H156c-.31,0-.45-.17-.54-.49l-.17-1.61a9.35,9.35,0,0,1-6.22,2.55,5.63,5.63,0,0,1-5.85-5.94C143.26,352.19,146.08,349.6,150.77,349.6Zm-1.43,10.23a8.13,8.13,0,0,0,5.94-2.77v-4.92a11.57,11.57,0,0,0-4.51-.94c-3.4,0-5.68,1.75-5.68,4.38A4,4,0,0,0,149.34,359.83Z"/><path class="cls-23" d="M163.77,343.83a.61.61,0,0,1,.63-.58h.45a.49.49,0,0,1,.53.45l.18,1.92a9.53,9.53,0,0,1,6.61-2.82c5,0,7.2,3.18,7.2,8.18v9.56a.59.59,0,0,1-.58.58H178a.59.59,0,0,1-.58-.58V351c0-4.11-1.92-6.26-5.32-6.26a9.14,9.14,0,0,0-6.39,3.09v12.73a.51.51,0,0,1-.58.58h-.85a.52.52,0,0,1-.49-.58Z"/><path class="cls-24" d="M186.65,345h-2.1c-.44,0-.53-.22-.53-.58v-.71c0-.32.22-.45.53-.45h2.1v-4.87a.56.56,0,0,1,.58-.58l.76-.05a.59.59,0,0,1,.58.59v4.91h6.21a.57.57,0,0,1,.59.58v.58a.54.54,0,0,1-.59.58h-6.21v11.4c0,2.1.23,3.26,2.33,3.26a9.49,9.49,0,0,0,4.06-1.21c.41-.22.58,0,.72.18l.31.54a.51.51,0,0,1-.13.76,9,9,0,0,1-5.19,1.65c-3.7,0-4-2.19-4-5.05Z"/><path class="cls-25" d="M208.1,342.8a7.87,7.87,0,0,1,8.09,8.18c0,.72,0,1.74-.67,1.74H201.27c.17,3.85,2.94,7.06,7,7.06a9.51,9.51,0,0,0,5.27-1.65c.4-.27.58-.31.8,0l.45.63c.13.17.09.44-.18.71a10.83,10.83,0,0,1-6.48,2.1c-5.45,0-8.8-4.2-8.8-9.43S202.65,342.8,208.1,342.8Zm6.12,8.31c0-3.48-2.1-6.52-6.12-6.52a6.65,6.65,0,0,0-6.79,6.52ZM204,336l-.27-.58c-.14-.31-.05-.45.27-.62l7.37-3.89a.52.52,0,0,1,.76.13l.45.9c.17.35-.05.62-.41.8l-7.55,3.44C204.17,336.37,204.08,336.28,204,336Z"/><path class="cls-26" d="M233.08,374a.59.59,0,0,1-.58.58h-.76a.59.59,0,0,1-.58-.58V343.83a.6.6,0,0,1,.63-.58h.49a.46.46,0,0,1,.53.45L233,345a9,9,0,0,1,5.85-2.15c5,0,8.63,4.16,8.63,9.39s-3.76,9.38-9,9.38a8.15,8.15,0,0,1-5.32-1.83Zm5.1-14.26c4.33,0,7.28-3.3,7.28-7.55s-2.73-7.5-6.79-7.5a7.09,7.09,0,0,0-5.54,2.5v10.45A7,7,0,0,0,238.18,359.69Z"/><path class="cls-27" d="M252.66,343.83a.59.59,0,0,1,.58-.58h.8a.59.59,0,0,1,.58.58v9.61c0,4.15,1.92,6.25,5.32,6.25a7.47,7.47,0,0,0,5.9-3.12V343.83a.54.54,0,0,1,.58-.58h.8a.59.59,0,0,1,.58.58v16.71a.58.58,0,0,1-.58.58h-.53c-.36,0-.49-.26-.54-.53l-.18-1.74a8.14,8.14,0,0,1-6.16,2.72c-5,0-7.15-3.08-7.15-8.13Z"/><path class="cls-28" d="M274.6,343.83a.59.59,0,0,1,.58-.58h.54a.53.53,0,0,1,.53.49l.18,1.83A6.87,6.87,0,0,1,282,342.8a7.47,7.47,0,0,1,2.77.54c.4.13.62.45.49.8l-.36.9c-.13.31-.4.35-.72.22a5.59,5.59,0,0,0-2.32-.54,6.3,6.3,0,0,0-5.32,3.09v12.73a.51.51,0,0,1-.58.58h-.89a.52.52,0,0,1-.49-.58Z"/><path class="cls-29" d="M298.77,343.83a.59.59,0,0,1,.58-.58h.76a.59.59,0,0,1,.58.58v23.42c0,5.27-2.59,7.73-6.52,7.73a7.58,7.58,0,0,1-5-1.93c-.27-.26-.23-.44-.09-.62l.44-.72c.18-.26.49-.26.76,0a6.6,6.6,0,0,0,3.89,1.48c2.82,0,4.6-1.79,4.6-5.94ZM298.19,333a1.52,1.52,0,1,1,3,0,1.52,1.52,0,0,1-3,0Z"/><path class="cls-30" d="M307.22,343.83a.59.59,0,0,1,.58-.58h.8a.6.6,0,0,1,.59.58v9.61c0,4.15,1.92,6.25,5.31,6.25a7.45,7.45,0,0,0,5.9-3.12V343.83a.54.54,0,0,1,.58-.58h.81a.59.59,0,0,1,.58.58v16.71a.59.59,0,0,1-.58.58h-.54c-.36,0-.49-.26-.54-.53l-.17-1.74a8.19,8.19,0,0,1-6.17,2.72c-5,0-7.15-3.08-7.15-8.13Z"/><path class="cls-31" d="M328.13,358.93l.45-.71a.52.52,0,0,1,.8,0,8,8,0,0,0,4.79,1.74c2.54,0,4.28-1.43,4.28-3.18,0-2.05-2-2.9-5-4-3.17-1.11-5.5-2.5-5.5-5.27,0-2,1.75-4.65,5.86-4.65a9.46,9.46,0,0,1,5.05,1.43.64.64,0,0,1,.18.85l-.27.49a.6.6,0,0,1-.85.23,8.42,8.42,0,0,0-4.11-1.25c-2.82,0-3.85,1.65-3.85,2.86,0,1.78,1.61,2.63,4.25,3.57,3.35,1.25,6.3,2.37,6.3,5.63,0,2.68-2.77,5-6.34,5a9.11,9.11,0,0,1-5.86-2A.5.5,0,0,1,328.13,358.93Z"/></g></g></svg>